<?xml version="1.0" encoding="UTF-8"?>
<svg id="uuid-dd512f09-ca20-417a-9c0c-e4068d0ef546" data-name="Capa 1" xmlns="http://www.w3.org/2000/svg" xmlns:xlink="http://www.w3.org/1999/xlink" viewBox="0 0 199.23 38.74">
  <defs>
    <clipPath id="uuid-647ec1d7-2177-4040-b0e1-431ed1fdb72b">
      <rect x="-488.9" y="-502.98" width="1440" height="462.49" fill="none"/>
    </clipPath>
    <radialGradient id="uuid-b5674bee-8bea-4cf5-8d4e-fe9157a17ed1" data-name="Degradado sin nombre 8" cx="64.83" cy="-1.12" fx="64.83" fy="-1.12" r="30.54" gradientUnits="userSpaceOnUse">
      <stop offset=".21" stop-color="#b5ea1d"/>
      <stop offset="1" stop-color="#c1d11e"/>
    </radialGradient>
    <radialGradient id="uuid-8fd027cc-977f-4c1d-8097-59f00da056cb" data-name="Degradado sin nombre 6" cx="143.31" cy="1782.15" fx="143.31" fy="1782.15" r="13.2" gradientTransform="translate(0 1797.61) scale(1 -1)" gradientUnits="userSpaceOnUse">
      <stop offset="0" stop-color="#2b4c99"/>
      <stop offset="1" stop-color="#28346e"/>
    </radialGradient>
    <radialGradient id="uuid-cbec95ed-01d6-4d7b-89f2-edf22ff6b10c" data-name="Degradado sin nombre 6" cx="168.7" cy="-808.92" fx="168.7" fy="-808.92" r="11.62" gradientTransform="translate(0 -793.12) scale(1 -1)" xlink:href="#uuid-8fd027cc-977f-4c1d-8097-59f00da056cb"/>
    <radialGradient id="uuid-fb075fed-aea0-4d72-9414-f239f04930ad" data-name="Degradado sin nombre 6" cx="114.51" cy="1781.86" fx="114.51" fy="1781.86" r="13.42" xlink:href="#uuid-8fd027cc-977f-4c1d-8097-59f00da056cb"/>
    <radialGradient id="uuid-6df5d788-912d-4ecc-9d73-995f3f5a3aac" data-name="Degradado sin nombre 6" cx="90.97" cy="1782.23" fx="90.97" fy="1782.23" r="12.31" xlink:href="#uuid-8fd027cc-977f-4c1d-8097-59f00da056cb"/>
    <radialGradient id="uuid-47efc914-5e07-480e-8596-96fe516d0262" data-name="Degradado sin nombre 6" cx="189.65" cy="15.8" fx="189.65" fy="15.8" r="11.62" gradientTransform="matrix(1,0,0,1,0,0)" xlink:href="#uuid-8fd027cc-977f-4c1d-8097-59f00da056cb"/>
    <radialGradient id="uuid-1606d2ea-c10e-4aef-8896-c320d032fbf2" data-name="Degradado sin nombre 8" cx="24.17" cy="-6.76" fx="24.17" fy="-6.76" r="35.86" xlink:href="#uuid-b5674bee-8bea-4cf5-8d4e-fe9157a17ed1"/>
    <radialGradient id="uuid-29dfcdc2-0d3f-4357-8636-9a3bd37db53f" data-name="Degradado sin nombre 8" cx="24.17" cy="-6.76" fx="24.17" fy="-6.76" r="35.86" xlink:href="#uuid-b5674bee-8bea-4cf5-8d4e-fe9157a17ed1"/>
    <radialGradient id="uuid-b8fede80-b39e-42a1-9e25-35b00340e696" data-name="Degradado sin nombre 6" cx="54.65" cy="35.46" fx="54.65" fy="35.46" r="2.75" gradientTransform="matrix(1,0,0,1,0,0)" xlink:href="#uuid-8fd027cc-977f-4c1d-8097-59f00da056cb"/>
    <radialGradient id="uuid-f37d1bdc-2bbe-44a7-a0d3-209566c6b2fd" data-name="Degradado sin nombre 6" cx="59.67" cy="35.46" fx="59.67" fy="35.46" r="2.58" gradientTransform="matrix(1,0,0,1,0,0)" xlink:href="#uuid-8fd027cc-977f-4c1d-8097-59f00da056cb"/>
    <radialGradient id="uuid-6587e527-1265-4d9b-b222-5a048e038752" data-name="Degradado sin nombre 6" cx="64.35" cy="35.46" fx="64.35" fy="35.46" r="2.9" gradientTransform="matrix(1,0,0,1,0,0)" xlink:href="#uuid-8fd027cc-977f-4c1d-8097-59f00da056cb"/>
    <radialGradient id="uuid-7853ef9c-46a1-462c-ac1d-302b3ae0acca" data-name="Degradado sin nombre 6" cx="69.18" cy="35.46" fx="69.18" fy="35.46" r="2.78" gradientTransform="matrix(1,0,0,1,0,0)" xlink:href="#uuid-8fd027cc-977f-4c1d-8097-59f00da056cb"/>
    <radialGradient id="uuid-958d3955-9143-4031-993a-fe4dfd42b40d" data-name="Degradado sin nombre 6" cx="74.02" cy="35.46" fx="74.02" fy="35.46" r="2.9" gradientTransform="matrix(1,0,0,1,0,0)" xlink:href="#uuid-8fd027cc-977f-4c1d-8097-59f00da056cb"/>
    <radialGradient id="uuid-c7b12f43-ce1f-4584-8a9d-5cae5be12dc0" data-name="Degradado sin nombre 6" cx="79.5" cy="35.46" fx="79.5" fy="35.46" r="2.64" gradientTransform="matrix(1,0,0,1,0,0)" xlink:href="#uuid-8fd027cc-977f-4c1d-8097-59f00da056cb"/>
    <radialGradient id="uuid-af60639e-ea47-49f0-9cb7-4cfbc233ffaf" data-name="Degradado sin nombre 6" cx="84.71" cy="35.46" fx="84.71" fy="35.46" r="2.95" gradientTransform="matrix(1,0,0,1,0,0)" xlink:href="#uuid-8fd027cc-977f-4c1d-8097-59f00da056cb"/>
    <radialGradient id="uuid-ad202d64-86e5-4678-ac10-d9b15daf8464" data-name="Degradado sin nombre 6" cx="90.77" cy="35.46" fx="90.77" fy="35.46" r="2.77" gradientTransform="matrix(1,0,0,1,0,0)" xlink:href="#uuid-8fd027cc-977f-4c1d-8097-59f00da056cb"/>
    <radialGradient id="uuid-b0fd015b-5eb0-48be-a442-e74dd495648c" data-name="Degradado sin nombre 6" cx="97.43" cy="35.46" fx="97.43" fy="35.46" r="3.2" gradientTransform="matrix(1,0,0,1,0,0)" xlink:href="#uuid-8fd027cc-977f-4c1d-8097-59f00da056cb"/>
    <radialGradient id="uuid-792283b4-09e7-433e-a586-eed936901075" data-name="Degradado sin nombre 6" cx="104.16" cy="35.46" fx="104.16" fy="35.46" r="2.9" gradientTransform="matrix(1,0,0,1,0,0)" xlink:href="#uuid-8fd027cc-977f-4c1d-8097-59f00da056cb"/>
    <radialGradient id="uuid-f60a1201-cafa-4e39-a9da-02c38ec00cdb" data-name="Degradado sin nombre 6" cx="112.08" cy="35.46" fx="112.08" fy="35.46" r="2.8" gradientTransform="matrix(1,0,0,1,0,0)" xlink:href="#uuid-8fd027cc-977f-4c1d-8097-59f00da056cb"/>
    <radialGradient id="uuid-ca461054-0a30-4741-8f92-f51a04be1f7c" data-name="Degradado sin nombre 6" cx="117.66" cy="35.46" fx="117.66" fy="35.46" r="2.66" gradientTransform="matrix(1,0,0,1,0,0)" xlink:href="#uuid-8fd027cc-977f-4c1d-8097-59f00da056cb"/>
    <radialGradient id="uuid-d8762ad1-fb1c-44b1-b551-5ad8af55e63a" data-name="Degradado sin nombre 6" cx="124.89" cy="35.46" fx="124.89" fy="35.46" r="2.85" gradientTransform="matrix(1,0,0,1,0,0)" xlink:href="#uuid-8fd027cc-977f-4c1d-8097-59f00da056cb"/>
    <radialGradient id="uuid-3aa507ff-279d-4567-bd31-356ab9d37240" data-name="Degradado sin nombre 6" cx="130.51" cy="35.46" fx="130.51" fy="35.46" r="2.66" gradientTransform="matrix(1,0,0,1,0,0)" xlink:href="#uuid-8fd027cc-977f-4c1d-8097-59f00da056cb"/>
    <radialGradient id="uuid-a770edf5-0607-463f-8e8e-d26b6281db6f" data-name="Degradado sin nombre 6" cx="135.43" cy="35.46" fx="135.43" fy="35.46" r="2.77" gradientTransform="matrix(1,0,0,1,0,0)" xlink:href="#uuid-8fd027cc-977f-4c1d-8097-59f00da056cb"/>
    <radialGradient id="uuid-d920a0db-4990-4338-bf5c-e34937e17a0c" data-name="Degradado sin nombre 6" cx="140.39" cy="35.46" fx="140.39" fy="35.46" r="2.78" gradientTransform="matrix(1,0,0,1,0,0)" xlink:href="#uuid-8fd027cc-977f-4c1d-8097-59f00da056cb"/>
    <radialGradient id="uuid-caa8695f-ddd1-493d-b468-8015eb709f08" data-name="Degradado sin nombre 6" cx="144.07" cy="35.46" fx="144.07" fy="35.46" r="2.28" gradientTransform="matrix(1,0,0,1,0,0)" xlink:href="#uuid-8fd027cc-977f-4c1d-8097-59f00da056cb"/>
    <radialGradient id="uuid-4edd8e69-a806-4d0b-8434-08486a6a28c9" data-name="Degradado sin nombre 6" cx="148.36" cy="34.34" fx="148.36" fy="34.34" r="3.61" gradientTransform="matrix(1,0,0,1,0,0)" xlink:href="#uuid-8fd027cc-977f-4c1d-8097-59f00da056cb"/>
    <radialGradient id="uuid-0b26c429-c841-49f2-884c-a2509f458c0e" data-name="Degradado sin nombre 6" cx="154.59" cy="35.46" fx="154.59" fy="35.46" r="2.84" gradientTransform="matrix(1,0,0,1,0,0)" xlink:href="#uuid-8fd027cc-977f-4c1d-8097-59f00da056cb"/>
    <radialGradient id="uuid-35f297cc-96a2-42bb-980f-2f69791038ec" data-name="Degradado sin nombre 6" cx="162.92" cy="35.46" fx="162.92" fy="35.46" r="2.8" gradientTransform="matrix(1,0,0,1,0,0)" xlink:href="#uuid-8fd027cc-977f-4c1d-8097-59f00da056cb"/>
    <radialGradient id="uuid-a3457078-a46b-4036-9f27-910a974fa265" data-name="Degradado sin nombre 6" cx="168.5" cy="35.46" fx="168.5" fy="35.46" r="2.66" gradientTransform="matrix(1,0,0,1,0,0)" xlink:href="#uuid-8fd027cc-977f-4c1d-8097-59f00da056cb"/>
    <radialGradient id="uuid-1f22fc37-1080-43d2-a333-c48746157745" data-name="Degradado sin nombre 6" cx="175.91" cy="35.46" fx="175.91" fy="35.46" r="2.75" gradientTransform="matrix(1,0,0,1,0,0)" xlink:href="#uuid-8fd027cc-977f-4c1d-8097-59f00da056cb"/>
    <radialGradient id="uuid-94aeb490-f3ca-4826-a142-df7499f79542" data-name="Degradado sin nombre 6" cx="180.98" cy="35.46" fx="180.98" fy="35.46" r="2.9" gradientTransform="matrix(1,0,0,1,0,0)" xlink:href="#uuid-8fd027cc-977f-4c1d-8097-59f00da056cb"/>
    <radialGradient id="uuid-6c86af5a-a220-4baf-bdf0-a93d3de43f55" data-name="Degradado sin nombre 6" cx="186.85" cy="35.46" fx="186.85" fy="35.46" r="2.8" gradientTransform="matrix(1,0,0,1,0,0)" xlink:href="#uuid-8fd027cc-977f-4c1d-8097-59f00da056cb"/>
    <radialGradient id="uuid-95e2a362-5a61-451b-8cc5-e40402f0752d" data-name="Degradado sin nombre 6" cx="192.43" cy="35.46" fx="192.43" fy="35.46" r="2.66" gradientTransform="matrix(1,0,0,1,0,0)" xlink:href="#uuid-8fd027cc-977f-4c1d-8097-59f00da056cb"/>
    <radialGradient id="uuid-6764a09f-6ad3-47f5-ba64-0091e15d6d97" data-name="Degradado sin nombre 6" cx="197.34" cy="35.46" fx="197.34" fy="35.46" r="2.58" gradientTransform="matrix(1,0,0,1,0,0)" xlink:href="#uuid-8fd027cc-977f-4c1d-8097-59f00da056cb"/>
  </defs>
  <g clip-path="url(#uuid-647ec1d7-2177-4040-b0e1-431ed1fdb72b)">
    <image width="1366" height="768" transform="translate(-487.27 -603.42) scale(1.05)" xlink:href="../../../../../Proyectos_Django/padelboard2/scoreboard/static/brand/bg-azul.jpg"/>
  </g>
  <g>
    <path d="M73.74,13.14h-8.66v2.44c0,1.34,1.08,2.43,2.42,2.43h3.76v3.48c-1.81,2.13-4.15,3.21-7.03,3.21-2.53,0-4.68-.9-6.49-2.72-1.83-1.78-2.74-3.92-2.74-6.42s.91-4.61,2.74-6.42c1.77-1.78,3.94-2.67,6.49-2.67,1.45,0,2.86.37,4.26,1.12.75.4,1.45.91,2.1,1.49.03.03.07.07.13.1l.26.22c.74.62,1.75.72,2.59.33h.04l.38-.26s.03-.02.05-.03l2.11-1.45c-1.52-2.02-3.33-3.59-5.43-4.71-2.1-1.12-4.27-1.69-6.5-1.69-3.9,0-7.23,1.38-10.03,4.14-2.74,2.7-4.11,5.99-4.11,9.84s1.37,7.17,4.11,9.87c2.77,2.74,6.11,4.11,10.03,4.11,1.18,0,2.33-.14,3.47-.43,1.13-.28,2.2-.7,3.23-1.25,1.02-.56,1.96-1.21,2.83-2,.82-.74,1.54-1.58,2.18-2.51.03-.04.24-.6.24-.6v-7.21c-.02-1.3-1.1-2.39-2.44-2.39h0Z" fill="url(#uuid-b5674bee-8bea-4cf5-8d4e-fe9157a17ed1)"/>
    <g>
      <path d="M130.08,28.61V8.28c0-3.3,2.68-5.98,5.98-5.98h5.97c2.86,0,5.38.54,7.56,1.63s3.89,2.62,5.11,4.59c1.23,1.97,1.84,4.28,1.84,6.94s-.61,4.97-1.84,6.94c-1.23,1.97-2.93,3.5-5.11,4.59s-4.7,1.63-7.56,1.63h-11.96,0ZM136.2,23.65h5.53c1.75,0,3.28-.33,4.57-.99,1.29-.67,2.29-1.62,3.01-2.86.71-1.24,1.07-2.69,1.07-4.34s-.35-3.13-1.07-4.36c-.71-1.23-1.72-2.17-3.01-2.84-1.29-.67-2.81-.99-4.57-.99h-5.53v16.39h0Z" fill="url(#uuid-8fd027cc-977f-4c1d-8097-59f00da056cb)"/>
      <path d="M178.28,4.86c0-1.34-1.08-2.42-2.42-2.42h-16.75v24.28c0,1.34,1.08,2.43,2.42,2.43h16.75v-2.24h-.02c0-.07.02-.14.02-.21,0-1.34-1.08-2.43-2.42-2.43h-11.91v-6.06h11.19v-2.43c0-1.34-1.08-2.43-2.42-2.43h-8.78v-6.06h14.33v-2.41h.01Z" fill="url(#uuid-cbec95ed-01d6-4d7b-89f2-edf22ff6b10c)"/>
      <path d="M124.49,28.9h3.68l-11.8-26.32h-3.38c-1.6,0-3.05.95-3.71,2.41l-8.09,18.21c-1.19,2.68.77,5.7,3.71,5.7h0l2.34-5.64h12.19l1.31,3.14c.63,1.51,2.11,2.5,3.75,2.5h0ZM109.17,18.64l4.17-10.03,4.17,10.03h-8.34,0Z" fill="url(#uuid-fb075fed-aea0-4d72-9414-f239f04930ad)"/>
    </g>
    <path d="M79.56,23.58V7.18c0-2.74,2.22-4.96,4.96-4.96h6.43c2.36,0,4.39.38,6.09,1.15,1.7.77,3.02,1.86,3.95,3.29.93,1.43,1.39,3.12,1.39,5.07s-.46,3.68-1.39,5.1c-.93,1.42-2.24,2.49-3.95,3.23-1.7.74-3.73,1.11-6.09,1.11h-8.04l2.78-2.63v10h-1.17c-2.74,0-4.96-2.22-4.96-4.96h0ZM85.68,19.22l-2.78-2.9h7.71c1.85,0,3.26-.4,4.21-1.2.95-.8,1.43-1.93,1.43-3.38s-.48-2.58-1.43-3.37-2.36-1.18-4.21-1.18h-7.71l2.78-2.9v14.92h0Z" fill="url(#uuid-6df5d788-912d-4ecc-9d73-995f3f5a3aac)"/>
    <path d="M196.81,24.26h-11.91V4.96c0-1.39-1.13-2.52-2.52-2.52h-2.32v24.28c0,1.34,1.09,2.43,2.43,2.43h16.73v-2.24h-.02c0-.07.02-.14.02-.21,0-1.34-1.08-2.43-2.42-2.43Z" fill="url(#uuid-47efc914-5e07-480e-8596-96fe516d0262)"/>
    <path d="M15.26,23.74l-1.42-.51c-4.78-1.7-8.01-6.27-8.06-11.34-.04-3.92,1.84-7.64,5.01-9.95.99-.56,2.02-1,3.07-1.34L15.67.03s-3.08-.37-6.74,1.33C3.61,4.44.02,10.19,0,16.78c0,.3.02.59.04.85v.11c.02.38.05.89.13,1.51.09.63.2,1.24.35,1.85-.01,0-.02,0-.03,0,.14.62.32,1.28.56,1.99h-.03c.04.08.07.14.11.21.98,2.68,2.88,5.83,6.66,8.65.09.06.19.12.28.18l.07.04c.24.17.46.31.67.43,1.05.64,2.27,1.24,3.62,1.81l2.47.94-1.31-2.54c-.72-1.34-.98-2.88-.74-4.45h0c.2-1.26.71-2.44,1.49-3.42l.93-1.18ZM10.74,31.23c-.44-.26-.86-.53-.89-.55-4.75-3.08-7.62-8.29-7.67-13.92-.01-1.5.18-3.02.58-4.52.27-1,.62-1.95,1.05-2.86-.14.83-.21,1.68-.2,2.54.05,5.42,3.34,10.52,8.23,12.83-.57,1-.96,2.12-1.14,3.26-.17,1.06-.16,2.16.04,3.22Z" fill="#1c4b8c"/>
    <path d="M28.14,14.46c-2.62-2.49-4.7-2.38-7.92-3.24-4.41-1.18-6.48-4.17-6.08-8.08-.69.25-1.36.55-2.02.9-2.46,1.84-3.9,4.76-3.87,7.83.02,1.79.54,3.5,1.44,4.97.27.34.52.7.75,1.06,1.09,1.34,2.53,2.39,4.22,2.99l4.68,1.67-3.08,3.9c-.48.6-.8,1.32-.96,2.09l-.02.16s0,.01,0,.02c.13.11.25.23.4.34,7.41,5.82,19.96-7.49,12.45-14.62Z" fill="url(#uuid-1606d2ea-c10e-4aef-8896-c320d032fbf2)"/>
    <path d="M30.41,4.73C26.89,1.42,21.83-.36,17,.06c-.26.61-.47,1.21-.63,1.79l-.15.62c-.69,3.29.51,5.82,4.55,6.9,2.75.73,4.61.75,7.12,2.44,11.67,7.89-2.12,25.16-12.27,19.51.04.1.09.2.14.3l1.94,3.75c15.89.58,24.66-19.37,12.7-30.63Z" fill="url(#uuid-29dfcdc2-0d3f-4357-8636-9a3bd37db53f)"/>
    <g>
      <path d="M54.73,36.66h-1.3v1.98h-1.03v-6.36h2.33c1.44,0,2.16.71,2.16,2.13,0,.73-.18,1.29-.54,1.67-.36.38-.9.58-1.62.58ZM53.43,35.77h1.29c.74,0,1.11-.45,1.11-1.35,0-.43-.09-.75-.27-.95-.18-.2-.46-.3-.84-.3h-1.29v2.6Z" fill="url(#uuid-b8fede80-b39e-42a1-9e25-35b00340e696)"/>
      <path d="M61.45,38.64h-3.56v-6.36h1.03v5.44h2.53v.92Z" fill="url(#uuid-f37d1bdc-2bbe-44a7-a0d3-209566c6b2fd)"/>
      <path d="M61.75,38.64l1.57-6.36h2.05l1.58,6.36h-1.04l-.34-1.36h-2.44l-.34,1.36h-1.03ZM64.11,33.15l-.79,3.22h2.03l-.78-3.22h-.46Z" fill="url(#uuid-6587e527-1265-4d9b-b222-5a048e038752)"/>
      <path d="M66.86,33.2v-.92h4.64v.92h-1.79v5.44h-1.04v-5.44h-1.81Z" fill="url(#uuid-7853ef9c-46a1-462c-ac1d-302b3ae0acca)"/>
      <path d="M71.42,38.64l1.57-6.36h2.05l1.58,6.36h-1.04l-.34-1.36h-2.44l-.34,1.36h-1.03ZM73.79,33.15l-.79,3.22h2.03l-.78-3.22h-.46Z" fill="url(#uuid-958d3955-9143-4031-993a-fe4dfd42b40d)"/>
      <path d="M77.53,38.64v-6.36h3.94v.9h-2.91v2.14h2.42v.9h-2.42v2.41h-1.03Z" fill="url(#uuid-c7b12f43-ce1f-4584-8a9d-5cae5be12dc0)"/>
      <path d="M86.72,37.96c-.38.52-1.05.78-2.01.78s-1.63-.26-2.01-.78c-.38-.52-.58-1.34-.58-2.46s.19-1.95.58-2.5,1.06-.82,2.01-.82,1.62.27,2,.81c.38.54.58,1.37.58,2.5s-.19,1.95-.57,2.47ZM83.5,37.29c.21.36.61.55,1.21.55s.99-.18,1.2-.54c.21-.36.31-.96.31-1.8s-.11-1.46-.32-1.84c-.21-.38-.61-.58-1.19-.58s-.98.19-1.2.58c-.22.38-.32.99-.32,1.83s.11,1.44.32,1.8Z" fill="url(#uuid-af60639e-ea47-49f0-9cb7-4cfbc233ffaf)"/>
      <path d="M89.52,36.38v2.26h-1.03v-6.36h2.41c1.44,0,2.15.67,2.15,2.02,0,.9-.35,1.52-1.04,1.84l1.05,2.5h-1.13l-.92-2.26h-1.49ZM91.99,34.32c0-.76-.37-1.14-1.1-1.14h-1.38v2.31h1.4c.37,0,.64-.11.82-.32s.26-.5.26-.85Z" fill="url(#uuid-ad202d64-86e5-4678-ac10-d9b15daf8464)"/>
      <path d="M94.22,38.64v-6.36h1.79l1.42,4.96,1.42-4.96h1.8v6.36h-1.04v-5.21h-.14l-1.5,4.95h-1.08l-1.5-4.95h-.14v5.21h-1.03Z" fill="url(#uuid-b0fd015b-5eb0-48be-a442-e74dd495648c)"/>
      <path d="M101.56,38.64l1.57-6.36h2.05l1.58,6.36h-1.04l-.34-1.36h-2.44l-.34,1.36h-1.03ZM103.92,33.15l-.79,3.22h2.03l-.78-3.22h-.46Z" fill="url(#uuid-792283b4-09e7-433e-a586-eed936901075)"/>
      <path d="M111.9,38.64h-2.2v-6.36h2.2c.98,0,1.65.25,2,.74.36.5.54,1.27.54,2.33,0,.54-.04.99-.11,1.37-.07.37-.2.71-.38,1.02-.35.6-1.04.9-2.06.9ZM113.38,35.36c0-.77-.1-1.32-.29-1.66s-.59-.51-1.19-.51h-1.17v4.55h1.17c.61,0,1.02-.23,1.22-.68.1-.23.17-.47.2-.73.03-.26.05-.58.05-.96Z" fill="url(#uuid-f60a1201-cafa-4e39-a9da-02c38ec00cdb)"/>
      <path d="M115.65,38.64v-6.36h4.01v.9h-2.98v1.8h2.42v.89h-2.42v1.86h2.98v.91h-4.01Z" fill="url(#uuid-ca461054-0a30-4741-8f92-f51a04be1f7c)"/>
      <path d="M125.41,36.21v-.91h1.81v3.23c-.17.04-.51.09-1.02.14-.51.05-.88.07-1.11.07-.96,0-1.63-.27-1.99-.8s-.55-1.37-.55-2.5.19-1.96.56-2.48c.37-.52,1.02-.78,1.94-.78.54,0,1.16.06,1.84.19l.32.06-.04.82c-.75-.1-1.42-.15-2.01-.15s-1,.17-1.22.5c-.22.33-.33.95-.33,1.86s.1,1.53.31,1.87.63.51,1.26.51c.45,0,.79-.03,1.01-.08v-1.55h-.79Z" fill="url(#uuid-d8762ad1-fb1c-44b1-b551-5ad8af55e63a)"/>
      <path d="M128.51,38.64v-6.36h4.01v.9h-2.98v1.8h2.42v.89h-2.42v1.86h2.98v.91h-4.01Z" fill="url(#uuid-3aa507ff-279d-4567-bd31-356ab9d37240)"/>
      <path d="M135.51,33.08c-.79,0-1.18.28-1.18.83,0,.28.09.49.28.61s.6.27,1.23.45c.63.18,1.08.39,1.34.63.26.24.39.63.39,1.16,0,.67-.19,1.17-.57,1.5-.38.33-.9.5-1.55.5-.53,0-1.11-.06-1.74-.19l-.33-.07.1-.83c.83.11,1.47.17,1.91.17.77,0,1.15-.34,1.15-1.02,0-.27-.09-.46-.26-.59s-.56-.27-1.17-.42-1.06-.36-1.35-.63c-.3-.27-.45-.69-.45-1.26s.19-1.01.56-1.3c.37-.29.89-.44,1.55-.44.48,0,1.04.06,1.69.17l.32.06-.08.83c-.87-.1-1.48-.15-1.84-.15Z" fill="url(#uuid-a770edf5-0607-463f-8e8e-d26b6281db6f)"/>
      <path d="M138.07,33.2v-.92h4.64v.92h-1.79v5.44h-1.04v-5.44h-1.81Z" fill="url(#uuid-d920a0db-4990-4338-bf5c-e34937e17a0c)"/>
      <path d="M143.56,38.64v-6.36h1.03v6.36h-1.03Z" fill="url(#uuid-caa8695f-ddd1-493d-b468-8015eb709f08)"/>
      <path d="M150.37,37.96c-.38.52-1.05.78-2.01.78s-1.63-.26-2.01-.78c-.38-.52-.58-1.34-.58-2.46s.19-1.95.58-2.5c.39-.54,1.06-.82,2.01-.82s1.62.27,2,.81c.38.54.58,1.37.58,2.5s-.19,1.95-.57,2.47ZM147.16,37.29c.21.36.61.55,1.21.55s.99-.18,1.2-.54c.21-.36.31-.96.31-1.8s-.11-1.46-.32-1.84c-.21-.38-.61-.58-1.19-.58s-.98.19-1.2.58c-.22.38-.32.99-.32,1.83s.11,1.44.32,1.8ZM147,30.88l2.19-.96.32.9-2.25.76-.26-.71Z" fill="url(#uuid-4edd8e69-a806-4d0b-8434-08486a6a28c9)"/>
      <path d="M152.14,38.64v-6.36h1.8l1.93,5.45h.14v-5.45h1.03v6.36h-1.76l-1.98-5.46h-.13v5.46h-1.03Z" fill="url(#uuid-0b26c429-c841-49f2-884c-a2509f458c0e)"/>
      <path d="M162.74,38.64h-2.2v-6.36h2.2c.98,0,1.65.25,2,.74.36.5.54,1.27.54,2.33,0,.54-.04.99-.11,1.37-.07.37-.2.71-.38,1.02-.35.6-1.04.9-2.06.9ZM164.22,35.36c0-.77-.1-1.32-.29-1.66s-.59-.51-1.19-.51h-1.17v4.55h1.17c.61,0,1.02-.23,1.22-.68.1-.23.17-.47.2-.73.03-.26.05-.58.05-.96Z" fill="url(#uuid-35f297cc-96a2-42bb-980f-2f69791038ec)"/>
      <path d="M166.49,38.64v-6.36h4.01v.9h-2.98v1.8h2.42v.89h-2.42v1.86h2.98v.91h-4.01Z" fill="url(#uuid-a3457078-a46b-4036-9f27-910a974fa265)"/>
      <path d="M175.99,36.66h-1.3v1.98h-1.03v-6.36h2.33c1.44,0,2.16.71,2.16,2.13,0,.73-.18,1.29-.54,1.67-.36.38-.9.58-1.62.58ZM174.69,35.77h1.29c.74,0,1.11-.45,1.11-1.35,0-.43-.09-.75-.27-.95-.18-.2-.46-.3-.84-.3h-1.29v2.6Z" fill="url(#uuid-1f22fc37-1080-43d2-a333-c48746157745)"/>
      <path d="M178.38,38.64l1.57-6.36h2.05l1.58,6.36h-1.04l-.34-1.36h-2.44l-.34,1.36h-1.03ZM180.74,33.15l-.79,3.22h2.03l-.78-3.22h-.46Z" fill="url(#uuid-94aeb490-f3ca-4826-a142-df7499f79542)"/>
      <path d="M186.68,38.64h-2.2v-6.36h2.2c.98,0,1.65.25,2,.74.36.5.54,1.27.54,2.33,0,.54-.04.99-.11,1.37-.07.37-.2.71-.38,1.02-.35.6-1.04.9-2.06.9ZM188.16,35.36c0-.77-.1-1.32-.29-1.66s-.59-.51-1.19-.51h-1.17v4.55h1.17c.61,0,1.02-.23,1.22-.68.1-.23.17-.47.2-.73.03-.26.05-.58.05-.96Z" fill="url(#uuid-6c86af5a-a220-4baf-bdf0-a93d3de43f55)"/>
      <path d="M190.43,38.64v-6.36h4.01v.9h-2.98v1.8h2.42v.89h-2.42v1.86h2.98v.91h-4.01Z" fill="url(#uuid-95e2a362-5a61-451b-8cc5-e40402f0752d)"/>
      <path d="M199.12,38.64h-3.56v-6.36h1.03v5.44h2.53v.92Z" fill="url(#uuid-6764a09f-6ad3-47f5-ba64-0091e15d6d97)"/>
    </g>
  </g>
</svg>